<?xml version="1.0" encoding="UTF-8"?>
<svg width="1024px" height="1024px" viewBox="0 0 1024 1024" version="1.1" xmlns="http://www.w3.org/2000/svg" xmlns:xlink="http://www.w3.org/1999/xlink">
    <!-- Generator: Sketch 53.2 (72643) - https://sketchapp.com -->
    <title>Group</title>
    <desc>Created with Sketch.</desc>
    <defs>
        <radialGradient cx="42.9919868%" cy="44.2328874%" fx="42.9919868%" fy="44.2328874%" r="54.4669889%" gradientTransform="translate(0.429920,0.442329),scale(1.000000,0.999024),rotate(-151.620138),scale(1.000000,0.242873),translate(-0.429920,-0.442329)" id="radialGradient-1">
            <stop stop-color="#081F40" offset="0%"></stop>
            <stop stop-color="#041022" offset="100%"></stop>
        </radialGradient>
        <linearGradient x1="100%" y1="50%" x2="0%" y2="50%" id="linearGradient-2">
            <stop stop-color="#333333" offset="0%"></stop>
            <stop stop-color="#2E2E2E" offset="100%"></stop>
        </linearGradient>
    </defs>
    <g id="Welcome" stroke="none" stroke-width="1" fill="none" fill-rule="evenodd">
        <g id="homePage">
            <g id="Group" transform="translate(-44.000000, -1.000000)">
                <rect id="Background" fill="url(#radialGradient-1)" x="44" y="0" width="1024" height="1025"></rect>
                <g id="BackgroundCity" transform="translate(0.000000, 2.000000)">
                    <g id="BackgroundBuildings" transform="translate(0.000000, 274.000000)">
                        <g id="Building2-+-Building1-+-Building4-+-Building3-+-Building5-+-Rectangle-+-Building6-+-Building9-+-Building8-+-Building7-Mask" transform="translate(40.000000, 193.000000)">
                            <polygon id="Building2" fill="#2E2E2E" style="mix-blend-mode: luminosity;" points="267.096386 195.549604 307.734644 195.549604 343.786145 113.439759 381.037675 195.549604 420.475904 195.549604 420.475904 885.545862 267.096386 885.545862"></polygon>
                            <g id="Building1" transform="translate(0.349398, 0.072289)">
                                <polygon id="Rectangle" fill="#2E2E2E" style="mix-blend-mode: luminosity;" points="0 37.1528329 100.03012 0 100.03012 773.566265 0 773.566265"></polygon>
                                <polygon id="Rectangle" fill="#333333" style="mix-blend-mode: luminosity;" points="93.3614458 0 193.391566 29.869988 193.391566 866.927711 93.3614458 866.927711"></polygon>
                            </g>
                            <g id="Building4" transform="translate(780.584337, 0.072289)">
                                <rect id="Rectangle" fill="#2E2E2E" style="mix-blend-mode: luminosity;" x="86.6927711" y="0" width="6.6686747" height="60.0180723"></rect>
                                <ellipse id="Oval" fill="url(#linearGradient-2)" style="mix-blend-mode: luminosity;" cx="86.6927711" cy="120.036145" rx="53.3493976" ry="66.686747"></ellipse>
                                <polygon id="Rectangle" fill="#2E2E2E" style="mix-blend-mode: luminosity;" points="0 142.250213 86.6927711 106.698795 86.6927711 846.921687 0 846.921687"></polygon>
                                <polygon id="Rectangle" fill="#333333" style="mix-blend-mode: luminosity;" points="86.6927711 100.03012 173.385542 128.751263 173.385542 933.614458 86.6927711 933.614458"></polygon>
                            </g>
                            <g id="Building3" transform="translate(493.831325, 233.475904)">
                                <polygon id="Rectangle" fill="#2E2E2E" style="mix-blend-mode: luminosity;" points="0 32.9891534 126.704819 0 126.704819 686.873494 0 686.873494"></polygon>
                                <polygon id="Rectangle" fill="#333333" style="mix-blend-mode: luminosity;" points="126.704819 0 200.060241 23.6662212 200.060241 686.873494 126.704819 686.873494"></polygon>
                                <polygon id="Rectangle" fill="#333333" style="mix-blend-mode: luminosity;" points="200.060241 106.698795 273.415663 130.365016 273.415663 793.572289 200.060241 793.572289"></polygon>
                                <polygon id="Rectangle" fill="#2E2E2E" style="mix-blend-mode: luminosity;" points="113.36747 137.125684 200.060241 106.698795 200.060241 740.222892 113.36747 740.222892"></polygon>
                            </g>
                            <g id="Building5" transform="translate(220.415663, 353.512048)" fill="#363636">
                                <rect id="Rectangle" style="mix-blend-mode: luminosity;" x="0" y="46.6807229" width="140.042169" height="546.831325"></rect>
                                <circle id="Oval" style="mix-blend-mode: luminosity;" cx="70.0210843" cy="60.0180723" r="60.0180723"></circle>
                            </g>
                            <polygon id="Rectangle" fill="#363636" style="mix-blend-mode: luminosity;" points="973.975904 237.118179 992.870482 237.118179 992.870482 206.801205 1073.06508 206.801205 1073.06508 237.118179 1087.34337 237.118179 1087.34337 867.275126 973.975904 867.275126"></polygon>
                            <polygon id="Building6" fill="#414141" style="mix-blend-mode: luminosity;" points="920.626506 345.961367 1007.34036 345.961367 1007.34036 286.825301 1074.00602 286.825301 1074.00602 712.738475 920.626506 712.738475"></polygon>
                        </g>
                    </g>
                    <g id="Stars" transform="translate(44.000000, 0.000000)" fill="#333333">
                        <g id="Oval">
                            <circle style="mix-blend-mode: luminosity;" cx="344.5" cy="97.5" r="5.5"></circle>
                            <circle style="mix-blend-mode: luminosity;" cx="674.5" cy="304.5" r="5.5"></circle>
                            <circle style="mix-blend-mode: luminosity;" cx="789.5" cy="151.5" r="5.5"></circle>
                            <circle style="mix-blend-mode: luminosity;" cx="741.5" cy="239.5" r="5.5"></circle>
                            <circle style="mix-blend-mode: luminosity;" cx="657.5" cy="172.5" r="5.5"></circle>
                            <circle style="mix-blend-mode: luminosity;" cx="542.5" cy="332.5" r="5.5"></circle>
                            <circle style="mix-blend-mode: luminosity;" cx="190.5" cy="151.5" r="5.5"></circle>
                            <circle style="mix-blend-mode: luminosity;" cx="5.5" cy="444.5" r="5.5"></circle>
                            <circle style="mix-blend-mode: luminosity;" cx="542.5" cy="72.5" r="5.5"></circle>
                            <circle style="mix-blend-mode: luminosity;" cx="265.5" cy="332.5" r="5.5"></circle>
                            <circle style="mix-blend-mode: luminosity;" cx="448.5" cy="218.5" r="5.5"></circle>
                            <circle style="mix-blend-mode: luminosity;" cx="694.5" cy="50.5" r="5.5"></circle>
                            <circle style="mix-blend-mode: luminosity;" cx="410.5" cy="5.5" r="5.5"></circle>
                            <circle style="mix-blend-mode: luminosity;" cx="1007.5" cy="298.5" r="5.5"></circle>
                            <circle style="mix-blend-mode: luminosity;" cx="769.5" cy="391.5" r="5.5"></circle>
                        </g>
                        <g transform="translate(506.500000, 675.000000) scale(-1, -1) translate(-506.500000, -675.000000) translate(0.000000, 450.000000)" id="Oval">
                            <circle style="mix-blend-mode: luminosity;" cx="344.5" cy="97.5" r="5.5"></circle>
                            <circle style="mix-blend-mode: luminosity;" cx="674.5" cy="304.5" r="5.5"></circle>
                            <circle style="mix-blend-mode: luminosity;" cx="789.5" cy="151.5" r="5.5"></circle>
                            <circle style="mix-blend-mode: luminosity;" cx="741.5" cy="239.5" r="5.5"></circle>
                            <circle style="mix-blend-mode: luminosity;" cx="657.5" cy="172.5" r="5.5"></circle>
                            <circle style="mix-blend-mode: luminosity;" cx="542.5" cy="332.5" r="5.5"></circle>
                            <circle style="mix-blend-mode: luminosity;" cx="190.5" cy="151.5" r="5.5"></circle>
                            <circle style="mix-blend-mode: luminosity;" cx="5.5" cy="444.5" r="5.5"></circle>
                            <circle style="mix-blend-mode: luminosity;" cx="542.5" cy="72.5" r="5.5"></circle>
                            <circle style="mix-blend-mode: luminosity;" cx="265.5" cy="332.5" r="5.5"></circle>
                            <circle style="mix-blend-mode: luminosity;" cx="448.5" cy="218.5" r="5.5"></circle>
                            <circle style="mix-blend-mode: luminosity;" cx="694.5" cy="50.5" r="5.5"></circle>
                            <circle style="mix-blend-mode: luminosity;" cx="410.5" cy="5.5" r="5.5"></circle>
                            <circle style="mix-blend-mode: luminosity;" cx="1007.5" cy="298.5" r="5.5"></circle>
                            <circle style="mix-blend-mode: luminosity;" cx="769.5" cy="391.5" r="5.5"></circle>
                        </g>
                    </g>
                </g>
            </g>
        </g>
    </g>
</svg>