<?xml version="1.0" encoding="UTF-8"?>
<svg width="2204px" height="2023px" viewBox="0 0 2204 2023" version="1.1" xmlns="http://www.w3.org/2000/svg" xmlns:xlink="http://www.w3.org/1999/xlink">
    <!-- Generator: Sketch 53.2 (72643) - https://sketchapp.com -->
    <title>Group</title>
    <desc>Created with Sketch.</desc>
    <g id="Welcome" stroke="none" stroke-width="1" fill="none" fill-rule="evenodd">
        <g id="Desktop-HD-Copy" transform="translate(-77.000000, -137.000000)">
            <g id="Group" transform="translate(77.000000, 140.000000)">
                <g id="Building3" transform="translate(0.000000, 280.000000)">
                    <polygon id="Path-8" fill="#2E2E2E" style="mix-blend-mode: luminosity;" points="0 1792 0 35.6760665 229 0 229 1792"></polygon>
                    <polygon id="Path-10" fill="#333333" style="mix-blend-mode: luminosity;" points="229 0 344 93.8352317 344 1792 229 1792"></polygon>
                </g>
                <g id="Building5" transform="translate(879.000000, 137.000000)">
                    <g id="Combined-Shape" transform="translate(0.000000, 301.353395)">
                        <polygon id="Mask" fill="#2E2E2E" style="mix-blend-mode: luminosity;" points="307 1640.6466 307 0.646604938 0 0.646604938 0 482.427399 81.5212967 482.427399 148.823763 507.893315 148.823763 526.579356 184.844801 537.002134 184.844801 1640.6466"></polygon>
                        <path d="M153,18.6466049 L300,129.295579 L153,260.233063 L6,129.295579 L153,18.6466049 Z M153,260.233063 L300,370.882037 L153,501.81952 L6,370.882037 L153,260.233063 Z M153,501.81952 L300,612.468495 L153,743.405978 L6,612.468495 L153,501.81952 Z M153,744.353376 L300,855.00235 L153,985.939834 L6,855.00235 L153,744.353376 Z M153,985.939834 L300,1096.58881 L153,1227.52629 L6,1096.58881 L153,985.939834 Z M153,1227.52629 L300,1338.17527 L153,1469.11275 L6,1338.17527 L153,1227.52629 Z M153,1470.06015 L300,1580.70912 L153,1711.6466 L6,1580.70912 L153,1470.06015 Z" stroke="#E8E8E8" stroke-width="9"></path>
                    </g>
                    <g id="Combined-Shape" transform="translate(306.860000, 301.110000)">
                        <polygon id="Mask" fill="#333333" style="mix-blend-mode: luminosity;" points="0.14 0.886861314 130.14 89.6800584 130.14 1643.88686 0.14 1643.88686"></polygon>
                        <path d="M61.9226166,1471.00188 L125.14,1587.88155 L61.4538892,1713.88686 L4.14,1581.59665 L61.4364634,1471.88905 L4.14,1339.63906 L61.4364634,1229.93146 L4.14,1097.68147 L61.4364634,987.973871 L4.14,855.723879 L61.9110101,745.10765 L125.14,862.008781 L61.9226166,987.086698 L125.14,1103.96637 L61.9226166,1229.04429 L125.14,1345.92396 L61.9226166,1471.00188 Z M61.9226166,502.222666 L125.14,619.102338 L61.4538892,745.10765 L4.14,612.817436 L61.4364634,503.109839 L4.14,370.859847 L61.9110101,260.243618 L125.14,377.144749 L61.9226166,502.222666 Z M4.57469617,129.508061 L70.9484664,56.8868613 L124.855321,147.08589 L61.4538892,260.243618 L4.57469617,129.508061 Z" stroke="#E8E8E8" stroke-width="8"></path>
                    </g>
                    <path d="M128,1.15334195 L128,304.80973" id="Path-17" stroke="#333333" stroke-width="8" stroke-linecap="round"></path>
                    <path d="M363,53.1533419 L363,356.80973" id="Path-17" stroke="#333333" stroke-width="8" stroke-linecap="round"></path>
                </g>
                <g id="Building7" transform="translate(470.000000, 0.000000)">
                    <path d="M32,446 L249,446 C249,303.966974 249,224.413764 249,207.340371 C249,147.505636 200.422895,99 140.5,99 C80.5771046,99 32,147.505636 32,207.340371 C32,247.230194 32,326.783404 32,446 Z" id="Oval" fill="#333333" style="mix-blend-mode: luminosity;"></path>
                    <polygon id="Path-20" fill="#333333" style="mix-blend-mode: luminosity;" points="140 181 283 240.393581 283 2069.76195 140 2071"></polygon>
                    <polygon id="Path-21" fill="#2E2E2E" style="mix-blend-mode: luminosity;" points="140 181 0 245.073732 0 2069 140 2069"></polygon>
                    <path d="M140,-3.55271368e-13 L140.5,115" id="Path-22" stroke="#333333" stroke-width="5" stroke-linecap="round"></path>
                </g>
                <g id="Building8" transform="translate(1539.000000, 309.000000)">
                    <polygon id="Path-13" fill="#2E2E2E" style="mix-blend-mode: luminosity;" points="188 1765 188 153 0 178.959639 0 1760"></polygon>
                    <polygon id="Path-15" fill="#333333" style="mix-blend-mode: luminosity;" points="188 153 343 240.315631 343 1765 188 1765"></polygon>
                    <polygon id="Path-23" fill="#2E2E2E" style="mix-blend-mode: luminosity;" points="188 0 188 153.039667 0 179"></polygon>
                    <polygon id="Path-24" fill="#333333" style="mix-blend-mode: luminosity;" points="188 0 343 240.315631 188 153.039667"></polygon>
                </g>
                <g id="Building2" transform="translate(683.000000, 900.000000)">
                    <polygon id="Path-7" fill="#3E3D3D" style="mix-blend-mode: luminosity;" points="282 0 353 27.281219 353 47 282 38.0117574"></polygon>
                    <polygon id="Path-5" fill="#383838" style="mix-blend-mode: luminosity;" points="54.5450181 38.3584805 54.5450181 0 281.894508 0 281.894508 38.3584805 321 38.3584805 321 1173 -3.73215084e-13 1173 13.1313384 38.3584805"></polygon>
                    <polygon id="Path-6" fill="#3E3D3D" style="mix-blend-mode: luminosity;" points="321 39 391 57.9988237 391 1174 321 1174"></polygon>
                </g>
                <g id="Building1" transform="translate(119.000000, 708.000000)">
                    <polygon id="Path-2" fill="#383838" style="mix-blend-mode: luminosity;" points="25.2974822 43.6185395 0 1366 359 1366 359 206.784249 234.817314 226.188421 234.817314 0"></polygon>
                    <polygon id="Path-3" fill="#3E3D3D" style="mix-blend-mode: luminosity;" points="359 207 492 265.102123 492 1366 359 1366"></polygon>
                    <polygon id="Path-4" fill="#3E3D3D" style="mix-blend-mode: luminosity;" points="234.817314 0 354 33.2878438 354 207.564346 234.817314 226.188421"></polygon>
                </g>
                <g id="Building4" transform="translate(1798.000000, 584.000000)">
                    <polygon id="Path-12" fill="#3E3D3D" style="mix-blend-mode: luminosity;" points="196.71468 0 0 85.6166961 2.7873872e-13 1489 393 1489 393 85.6166961"></polygon>
                    <path d="M196.60967,0 C195.857025,126.09057 202.789191,272.907828 217.40617,440.451773 C230.136024,586.364968 257.993364,774.310568 287.924678,909.921168 C309.546041,1007.88165 335.649128,1076.1373 341.73586,1092.91452 C356.248696,1132.91713 383.038142,1251.23829 393.168381,1312.75229 C397.815051,1340.96834 403.425591,1399.71757 410,1489 L146.745343,1489 C136.568216,1422.08549 126.101313,1370.74531 115.344635,1334.97946 C100.803216,1286.62938 62.3550045,1177.03274 0,1006.18953 L2.4359775e-14,85.9100326 L196.60967,0 Z" id="Path-11" fill="#383838" style="mix-blend-mode: luminosity;"></path>
                </g>
                <g id="Building6" transform="translate(1249.000000, 755.000000)">
                    <g>
                        <polygon id="Path-18" fill="#383838" style="mix-blend-mode: luminosity;" points="196.067352 1318 196.067352 348 0 128 0 1318"></polygon>
                        <polygon id="Path-18" fill="#3E3D3D" style="mix-blend-mode: luminosity;" transform="translate(293.533676, 723.000000) scale(-1, 1) translate(-293.533676, -723.000000) " points="391 1318 391 348 196.067352 128 196.067352 1318"></polygon>
                        <polygon id="Path-19" fill="#383838" style="mix-blend-mode: luminosity;" points="0 128 195.567525 0 391 127.893458 196.067352 348"></polygon>
                    </g>
                </g>
            </g>
        </g>
    </g>
</svg>