<svg viewBox="0 0 45 49" version="1.1" xmlns="http://www.w3.org/2000/svg" xmlns:xlink="http://www.w3.org/1999/xlink">
    <g id="Welcome" stroke="none" stroke-width="1" fill="none" fill-rule="evenodd">
        <g id="Logos" transform="translate(-77.000000, -11.000000)" fill="#FFFFFF" fill-rule="nonzero">
            <path d="M93.08,58.84 C93.08,58.08 93.04,55.56 93.04,52.88 C85,54.36 82.92,50.92 82.28,49.12 C81.92,48.2 80.36,45.36 79,44.6 C77.88,44 76.28,42.52 78.96,42.48 C81.48,42.44 83.28,44.8 83.88,45.76 C86.76,50.6 91.36,49.24 93.2,48.4 C93.48,46.32 94.32,44.92 95.24,44.12 C88.12,43.32 80.68,40.56 80.68,28.32 C80.68,24.84 81.92,21.96 83.96,19.72 C83.64,18.92 82.52,15.64 84.28,11.24 C84.28,11.24 86.96,10.4 93.08,14.52 C95.64,13.8 98.36,13.44 101.08,13.44 C103.8,13.44 106.52,13.8 109.08,14.52 C115.2,10.36 117.88,11.24 117.88,11.24 C119.64,15.64 118.52,18.92 118.2,19.72 C120.24,21.96 121.48,24.8 121.48,28.32 C121.48,40.6 114,43.32 106.88,44.12 C108.04,45.12 109.04,47.04 109.04,50.04 C109.04,54.32 109,57.76 109,58.84 C109,59.68 93.08,59.68 93.08,58.84 Z" id="Path"></path>
        </g>
    </g>
</svg>