<svg  viewBox="0 0 50 50" version="1.1" xmlns="http://www.w3.org/2000/svg" xmlns:xlink="http://www.w3.org/1999/xlink">
    <g id="Welcome" stroke="none" stroke-width="1" fill="none" fill-rule="evenodd">
        <g id="Logos" transform="translate(-10.000000, -10.000000)" fill="#FFFFFF" fill-rule="nonzero">
            <path d="M26.1344944,26.1344944 L35.0846638,26.1344944 L35.0846638,31.0498307 L35.2926947,31.0498307 C37.0633769,28.7518142 40.7353653,25.8345428 46.6956942,25.8345428 C55.7668118,25.8345428 60,30.0435414 60,40.6482825 L60,60 L50.3241413,60 L50.3241413,44.2767296 C50.3241413,37.3246251 48.7373004,35.205612 43.7058539,35.205612 C38.2293179,35.205612 35.8103532,39.4388002 35.8103532,45.4862119 L35.8103532,60 L26.1344944,60 L26.1344944,26.1344944 Z M11.6207063,60 L11.6207063,26.1344944 L21.2965651,26.1344944 L21.2965651,60 L11.6207063,60 Z M22.9172714,16.4586357 C22.9172714,20.0241896 20.0241896,22.9172714 16.4586357,22.9172714 C12.8930818,22.9172714 10,20.0241896 10,16.4586357 C10,12.8930818 12.8930818,10 16.4586357,10 C20.0241896,10 22.9172714,12.8930818 22.9172714,16.4586357 Z" id="Combined-Shape"></path>
        </g>
    </g>
</svg>