<svg viewBox="0 0 176 124" version="1.1" xmlns="http://www.w3.org/2000/svg" xmlns:xlink="http://www.w3.org/1999/xlink">
    <g id="Page-1" stroke="none" stroke-width="1" fill="none" fill-rule="evenodd">
        <g class="Logos" transform="translate(-1056.000000, -326.000000)" fill="#FFFFFF" fill-rule="nonzero">
            <path d="M1126,414.169 L1126,361.831 L1172,388.001 L1126,414.169 Z M1228.322,345.363 C1226.298,337.741 1220.334,331.739 1212.762,329.702 C1199.037,326 1144,326 1144,326 C1144,326 1088.963,326 1075.238,329.702 C1067.666,331.739 1061.702,337.741 1059.678,345.363 C1056,359.177 1056,388 1056,388 C1056,388 1056,416.822 1059.678,430.637 C1061.702,438.259 1067.666,444.261 1075.238,446.299 C1088.963,450 1144,450 1144,450 C1144,450 1199.037,450 1212.762,446.299 C1220.334,444.261 1226.298,438.259 1228.322,430.637 C1232,416.822 1232,388 1232,388 C1232,388 1232,359.177 1228.322,345.363 L1228.322,345.363 Z"></path>
        </g>
    </g>
</svg>