<svg viewBox="0 0 176 124" version="1.1" xmlns="http://www.w3.org/2000/svg">
                    <g stroke="none" stroke-width="1" fill="none" fill-rule="evenodd">
                        <g transform="translate(-179.000000, -190.000000)">
                            <g class="Logos" transform="translate(179.000000, 190.000000)" fill="#FFFFFF">
                                <mask id="mask-2" fill="white">
                                    <polygon id="path-1" points="0.06 0.04 176 0.04 176 124 0.06 124"></polygon>
                                </mask>
                                <g id="Clip-2"></g>
                                <path d="M70,88.169 L70,35.831 L116,62.001 L70,88.169 Z M172.322,19.363 C170.298,11.741 164.334,5.739 156.762,3.702 C143.037,0 88,0 88,0 C88,0 32.963,0 19.238,3.702 C11.666,5.739 5.702,11.741 3.678,19.363 C0,33.177 0,62 0,62 C0,62 0,90.822 3.678,104.637 C5.702,112.259 11.666,118.261 19.238,120.299 C32.963,124 88,124 88,124 C88,124 143.037,124 156.762,120.299 C164.334,118.261 170.298,112.259 172.322,104.637 C176,90.822 176,62 176,62 C176,62 176,33.177 172.322,19.363 L172.322,19.363 Z" id="Fill-1" fill="#FFFFFF" mask="url(#mask-2)"></path>
                            </g>
                        </g>
                    </g>
                </svg>